PathFileType	4	(X/Y/Z)	Walk5.trc
DataRate	CameraRate	NumFrames	NumMarkers	Units	OrigDataRate	OrigDataStartFrame	OrigNumFrames
200.000000	200.000000	6	59	mm	200.000000	195	541
Frame#	Times		LFHD		RFHD		CLAV		STRN		LASI		RASI		RACR1		RUA1		RElbow		RFA1		RWRR		RWRU		RCAR		LACR1		LUA1		LElbow		LFA1		LWRR		LWRU		LCAR		RTH3		RTH2		RMFC		RTB1		RTB3		RTB2		RTB4		LTH1		LTH3		LTH2		LMFC		LTB1		LTB2		LTB4		LMT1		RTH4		RToe		RMT1		LTH4		RTH1		RLFC		RElbowM		RMMAL		LMT5		RBHD		LTB3		RCAL		LToe		LLFC		RBack		RPSI		C7		LMMAL		T10		LPSI		LLMAL		LCAL		LBHD		LElbowM
			X1	Y1	Z1	X2	Y2	Z2	X3	Y3	Z3	X4	Y4	Z4	X5	Y5	Z5	X6	Y6	Z6	X7	Y7	Z7	X8	Y8	Z8	X9	Y9	Z9	X10	Y10	Z10	X11	Y11	Z11	X12	Y12	Z12	X13	Y13	Z13	X14	Y14	Z14	X15	Y15	Z15	X16	Y16	Z16	X17	Y17	Z17	X18	Y18	Z18	X19	Y19	Z19	X20	Y20	Z20	X21	Y21	Z21	X22	Y22	Z22	X23	Y23	Z23	X24	Y24	Z24	X25	Y25	Z25	X26	Y26	Z26	X27	Y27	Z27	X28	Y28	Z28	X29	Y29	Z29	X30	Y30	Z30	X31	Y31	Z31	X32	Y32	Z32	X33	Y33	Z33	X34	Y34	Z34	X35	Y35	Z35	X36	Y36	Z36	X37	Y37	Z37	X38	Y38	Z38	X39	Y39	Z39	X40	Y40	Z40	X41	Y41	Z41	X42	Y42	Z42	X43	Y43	Z43	X44	Y44	Z44	X45	Y45	Z45	X46	Y46	Z46	X47	Y47	Z47	X48	Y48	Z48	X49	Y49	Z49	X50	Y50	Z50	X51	Y51	Z51	X52	Y52	Z52	X53	Y53	Z53	X54	Y54	Z54	X55	Y55	Z55	X56	Y56	Z56	X57	Y57	Z57	X58	Y58	Z58	X59	Y59	Z59

195	0.975	-535.97	1642.1	88.715	-533.54	1631.8	-10.836	-523.48	1377.8	69.068	-455.02	1220.8	78.292	-564.03	953.09	-96.848	-587.76	966.46	272.33	-649.99	1470.3	226.86	-668.26	1316.3	360.01	-642.02	1183.4	431.76	-550.77	1068.5	432.67	-482.95	981.1	350.75	-484.44	976.14	432.47	-421.16	916.81	390.44	-631.69	1440.1	-118.39	-701.54	1277.4	-199.97	-756.93	1119.2	-238.69	-768.86	978.1	-241.25	-748.54	850.3	-172.78	-798.57	840.19	-227.89	-768.79	758.39	-193.31	-759.31	592.05	263.84	-686.29	667.43	263.87	-810.04	488.76	96.447	-793.89	347.02	176.41	-876.73	195.59	159.22	-853.34	275.62	226.28	-835.41	270.73	168.12	-562.15	749.82	-129.49	-489.12	595.81	-106.88	-476.58	700.01	-97.491	-451.34	509.93	48.695	-367.66	427.48	-56.916	-371.83	330.34	-95.407	-340.38	348.72	-45.066	-176.72	108.13	-32.651	-742.93	675.38	276.77	-807.58	25.812	174.99	-856.66	23.044	138.39	-526.86	673.48	-119.25	-727.58	759.9	290.38	-807.19	481.42	251.35	-675.51	1095.2	336.56	-969.93	88.268	98.511	-226.29	65.006	-99.284	-677.85	1543.1	-17.399	-319.07	264.45	-34.141	-1071.4	74.821	138.03	-135.29	126.31	-76.75	-477	514.02	-106.93	-787.56	1342.4	172.59	-834.48	1014	96.091	-719.34	1456.6	55.947	-314.03	101.84	44.691	-784.59	1141.3	63.879	-815.33	1006.8	15.782	-343.37	82.388	-36.677	-370.08	35.424	23.428	-668.06	1562.9	128.24	-828.74	1087.6	-140.79
196	0.98	-529.2	1641.1	87.113	-526.69	1630.6	-12.439	-516.46	1376.6	67.673	-447.98	1219.8	77.296	-556.61	952.02	-97.552	-580.92	965.49	271.33	-643.26	1469.4	225.25	-661.54	1315.5	358.5	-635.47	1182.7	430.29	-544.1	1067.9	431.18	-476.07	980.75	349.19	-477.66	975.62	430.91	-414.16	916.59	388.82	-624.57	1438.6	-119.94	-694.39	1275.8	-201.34	-749.84	1117.6	-239.96	-761.9	976.47	-242.21	-741.93	848.87	-173.32	-791.83	838.65	-228.58	-762.47	756.86	-193.41	-754.36	591.42	263.24	-681.03	666.54	263.43	-804.79	488.15	95.787	-790.41	346.3	176	-874.83	195.75	158.86	-850.73	275.62	225.86	-832.71	270.43	167.73	-553.97	749.44	-130.06	-481.07	595.43	-107.4	-468.44	699.61	-98.013	-443.95	509.27	47.952	-360.49	425.97	-56.94	-365.56	328.88	-95.406	-334.18	346.9	-44.86	-173.93	103.53	-31.703	-737.7	674.7	276.11	-807.49	25.77	175.04	-856.57	23.011	138.4	-518.76	673.09	-119.68	-722.04	759.15	289.69	-802.81	481.04	250.71	-668.9	1094.4	335.1	-969.03	89.336	98.239	-224.2	61.402	-98.416	-670.93	1541.9	-19.04	-313.99	262.4	-33.792	-1070.7	76.993	137.64	-132.26	121.24	-75.395	-469	513.6	-107.62	-780.77	1341.5	171.05	-827.49	1012.7	95.064	-712.47	1455.5	54.258	-311.51	99.756	45.126	-777.58	1140.1	62.958	-808.22	1005.5	15.002	-340.82	80.818	-36.433	-368.69	34.773	23.61	-661.27	1561.8	126.54	-822.02	1086.3	-142.27
197	0.985	-522.4	1640.1	85.472	-519.81	1629.6	-14.08	-509.4	1375.6	66.24	-440.91	1218.8	76.258	-549.21	951.02	-98.273	-573.99	964.53	270.26	-636.48	1468.6	223.62	-654.81	1314.8	356.98	-628.94	1182	428.79	-537.5	1067.3	429.66	-469.3	980.36	347.63	-470.98	975.06	429.35	-407.3	916.31	387.21	-617.46	1437.1	-121.53	-687.21	1274.2	-202.72	-742.67	1116	-241.25	-754.84	974.82	-243.2	-735.2	847.41	-173.92	-784.96	837.08	-229.32	-756	755.32	-193.6	-749.23	590.82	262.62	-675.62	665.7	262.97	-799.32	487.54	95.128	-786.77	345.59	175.57	-872.81	195.98	158.49	-847.97	275.67	225.44	-829.87	270.18	167.34	-545.86	749.13	-130.64	-473.11	595.09	-107.98	-460.36	699.25	-98.614	-436.72	508.63	47.14	-353.39	424.55	-57.06	-359.38	327.52	-95.491	-328.06	345.17	-44.749	-171.25	98.837	-30.875	-732.31	674.04	275.42	-807.41	25.728	175.08	-856.49	22.971	138.4	-510.75	672.74	-120.13	-716.38	758.44	288.95	-798.21	480.69	250.08	-662.34	1093.6	333.62	-968.06	90.528	97.981	-222.31	57.761	-97.653	-663.98	1540.7	-20.708	-309	260.44	-33.543	-1069.9	79.378	137.27	-129.38	116.02	-74.123	-461.11	513.26	-108.37	-773.94	1340.6	169.51	-820.46	1011.5	94.031	-705.57	1454.3	52.549	-309.05	97.812	45.487	-770.56	1139	62.075	-801.11	1004.3	14.224	-338.39	79.394	-36.249	-367.44	34.365	23.758	-654.44	1560.7	124.81	-815.24	1084.9	-143.77
198	0.99	-515.57	1639.2	83.795	-512.91	1628.6	-15.755	-502.32	1374.6	64.774	-433.82	1217.9	75.179	-541.84	950.11	-99.002	-566.98	963.61	269.14	-629.67	1467.9	221.97	-648.08	1314.2	355.43	-622.42	1181.3	427.25	-530.96	1066.7	428.13	-462.63	979.93	346.06	-464.42	974.48	427.77	-400.58	915.96	385.59	-610.34	1435.6	-123.13	-680	1272.6	-204.1	-735.41	1114.3	-242.55	-747.69	973.16	-244.22	-728.36	845.93	-174.58	-777.99	835.5	-230.13	-749.37	753.76	-193.89	-743.9	590.23	261.99	-670.05	664.9	262.49	-793.63	486.94	94.474	-782.94	344.9	175.15	-870.66	196.3	158.13	-845.03	275.79	225.03	-826.87	269.98	166.95	-537.85	748.89	-131.24	-465.24	594.83	-108.64	-452.36	698.96	-99.3	-429.62	508.05	46.254	-346.36	423.22	-57.294	-353.28	326.26	-95.677	-322	343.55	-44.748	-168.65	94.11	-30.188	-726.75	673.42	274.71	-807.35	25.688	175.1	-856.42	22.923	138.39	-502.84	672.48	-120.62	-710.59	757.76	288.18	-793.39	480.36	249.47	-655.85	1092.9	332.12	-967	91.856	97.74	-220.59	54.141	-97.024	-657	1539.6	-22.402	-304.07	258.6	-33.407	-1069	81.989	136.93	-126.61	110.72	-72.969	-453.31	513	-109.19	-767.09	1339.8	167.98	-813.38	1010.3	92.996	-698.64	1453.3	50.824	-306.61	96.044	45.762	-763.54	1138	61.231	-793.98	1003.2	13.44	-336.06	78.139	-36.134	-366.28	34.208	23.862	-647.59	1559.8	123.06	-808.37	1083.5	-145.28
199	0.995	-508.71	1638.4	82.084	-505.99	1627.7	-17.461	-495.2	1373.6	63.279	-426.69	1217.1	74.061	-534.5	949.29	-99.737	-559.89	962.72	267.96	-622.8	1467.3	220.31	-641.35	1313.6	353.86	-615.92	1180.7	425.68	-524.5	1066.1	426.58	-456.08	979.47	344.49	-457.98	973.86	426.2	-394.01	915.56	383.98	-603.22	1434.1	-124.76	-672.75	1271.1	-205.49	-728.08	1112.7	-243.86	-740.45	971.5	-245.27	-721.39	844.44	-175.31	-770.9	833.91	-230.98	-742.58	752.2	-194.28	-738.36	589.67	261.34	-664.3	664.17	261.99	-787.7	486.35	93.833	-778.91	344.25	174.72	-868.38	196.7	157.77	-841.91	275.97	224.62	-823.72	269.85	166.57	-529.95	748.76	-131.87	-457.45	594.68	-109.38	-444.46	698.78	-100.08	-422.64	507.56	45.287	-339.39	422.01	-57.652	-347.25	325.13	-95.974	-316.01	342.06	-44.868	-166.12	89.407	-29.655	-721.02	672.83	273.99	-807.3	25.647	175.1	-856.36	22.865	138.37	-495.03	672.31	-121.18	-704.65	757.12	287.38	-788.33	480.05	248.88	-649.41	1092.3	330.6	-965.84	93.327	97.519	-219.01	50.595	-96.552	-650	1538.6	-24.119	-299.2	256.9	-33.392	-1068	84.841	136.62	-123.97	105.39	-71.951	-445.62	512.84	-110.08	-760.21	1339.1	166.46	-806.26	1009.2	91.963	-691.68	1452.4	49.087	-304.2	94.468	45.941	-756.51	1137.1	60.431	-786.84	1002.2	12.647	-333.79	77.06	-36.097	-365.16	34.291	23.912	-640.7	1558.9	121.29	-801.42	1082.1	-146.79
200	1	-501.84	1637.7	80.342	-499.05	1626.9	-19.192	-488.06	1372.8	61.759	-419.54	1216.4	72.905	-527.19	948.58	-100.48	-552.73	961.87	266.73	-615.88	1466.8	218.65	-634.61	1313.1	352.27	-609.44	1180.2	424.08	-518.11	1065.6	425.01	-449.64	978.98	342.92	-451.67	973.22	424.63	-387.59	915.09	382.39	-596.11	1432.7	-126.41	-665.48	1269.5	-206.86	-720.68	1111.1	-245.17	-733.11	969.85	-246.35	-714.31	842.95	-176.1	-763.69	832.34	-231.89	-735.63	750.65	-194.77	-732.6	589.13	260.69	-658.37	663.48	261.46	-781.53	485.77	93.214	-774.68	343.63	174.3	-865.95	197.21	157.42	-838.59	276.21	224.23	-820.4	269.78	166.2	-522.17	748.73	-132.55	-449.75	594.64	-110.22	-436.66	698.71	-100.95	-415.72	507.21	44.24	-332.49	420.92	-58.135	-341.28	324.11	-96.383	-310.08	340.69	-45.111	-163.68	84.779	-29.273	-715.1	672.26	273.25	-807.27	25.606	175.08	-856.31	22.798	138.34	-487.31	672.25	-121.81	-698.57	756.52	286.54	-782.99	479.76	248.32	-643.03	1091.7	329.05	-964.58	94.953	97.323	-217.57	47.172	-96.247	-642.98	1537.7	-25.855	-294.4	255.34	-33.497	-1066.8	87.945	136.33	-121.43	100.11	-71.075	-438.01	512.79	-111.06	-753.29	1338.5	164.96	-799.12	1008.1	90.942	-684.69	1451.5	47.343	-301.8	93.086	46.019	-749.48	1136.4	59.676	-779.69	1001.4	11.841	-331.59	76.152	-36.141	-364.08	34.587	23.899	-633.79	1558.2	119.49	-794.38	1080.7	-148.3
